# xmcd CD database file
#
# Track frame offsets:
#	150
#	24740
#	45353
#	61179
#	81472
#	95577
#	111531
#	133568
#	156551
#	172688
#	192911
#	212667
#	235695
#	248057
#	258840
#	275066
#	286107
#	300196
#	315333
#
# Disc length: 4425 seconds
#
# Revision: 3
# Processed by: cddbd v1.5.1PL2 Copyright (c) Steve Scherf et al.
# Submitted via: CDex 1.70beta2
#
DISCID=fd114713
DTITLE=Cranberries - Greats hits
DYEAR=1900
DGENRE=
TTITLE0=Promises
TTITLE1=Linger
TTITLE2=Animal Instinct
TTITLE3=Ode to my family
TTITLE4=Saving grace
TTITLE5=The sweetest thing
TTITLE6=When you're gone
TTITLE7=Zombie
TTITLE8=You and me
TTITLE9=Dreams
TTITLE10=Free to decide
TTITLE11=Hollywood
TTITLE12=Loud and clear
TTITLE13=Salvation
TTITLE14=Dreaming my dreams
TTITLE15=Away
TTITLE16=I can't be with you
TTITLE17=Joe
TTITLE18=Just my imagination
EXTD=
EXTT0=
EXTT1=
EXTT2=
EXTT3=
EXTT4=
EXTT5=
EXTT6=
EXTT7=
EXTT8=
EXTT9=
EXTT10=
EXTT11=
EXTT12=
EXTT13=
EXTT14=
EXTT15=
EXTT16=
EXTT17=
EXTT18=
PLAYORDER=
